# xmcd CD database file
#
# Track frame offsets:
#	150
#	28314
#	48441
#	70447
#	94330
#	114282
#	141622
#	161556
#	181948
#	196918
#	222517
#
# Disc length: 3253 seconds
#
# Revision: 1
# Processed by: cddbd v1.5.2PL0 Copyright (c) Steve Scherf et al.
# Submitted via: CDex 1.70beta2
#
DISCID=a90cb30b
DTITLE=Hoosier blues - Hangin'out in the  streets
DYEAR=1997
DGENRE=Blues
TTITLE0=Boy with a gun
TTITLE1=Hangin' out in the streets
TTITLE2=I'm tired
TTITLE3=Ugly woman
TTITLE4=Things that make we mad
TTITLE5=Ain't no good in goodbye
TTITLE6=Money
TTITLE7=Lady blue
TTITLE8=When you're lovin' someone else
TTITLE9=Sunshine
TTITLE10=Doggin' me
EXTD=YEAR: 1997
EXTT0=
EXTT1=
EXTT2=
EXTT3=
EXTT4=
EXTT5=
EXTT6=
EXTT7=
EXTT8=
EXTT9=
EXTT10=
PLAYORDER=
